<svg width="1440" height="955" viewBox="0 0 1440 955" fill="none" xmlns="http://www.w3.org/2000/svg">
<path fill-rule="evenodd" clip-rule="evenodd" d="M289 -158H1423.42L1609.78 239.563L937.636 612.085C892.875 636.893 836.608 623.904 807.25 581.986L289 -158Z" fill="url(#paint0_linear)"/>
<path fill-rule="evenodd" clip-rule="evenodd" d="M318.515 -21.7154C317.248 -23.5344 314.743 -23.976 312.93 -22.7001L310.887 -21.2619C309.087 -19.9947 308.649 -17.511 309.907 -15.7045L486.436 237.712C487.703 239.531 490.207 239.973 492.02 238.697L494.063 237.259C495.864 235.992 496.302 233.508 495.043 231.701L318.515 -21.7154Z" fill="url(#paint1_linear)"/>
<path fill-rule="evenodd" clip-rule="evenodd" d="M1291.43 132.695C1290 130.649 1287.18 130.152 1285.15 131.587L1282.85 133.205C1280.82 134.631 1280.33 137.425 1281.74 139.457L1329.2 207.586C1330.63 209.632 1333.44 210.129 1335.48 208.693L1337.78 207.075C1339.81 205.65 1340.3 202.856 1338.89 200.823L1291.43 132.695Z" fill="url(#paint2_linear)"/>
<path fill-rule="evenodd" clip-rule="evenodd" d="M388.554 -19.8231C382.317 -28.7738 369.991 -30.9453 361.07 -24.6648C352.211 -18.4275 350.058 -6.20392 356.252 2.68529L653.827 429.737C660.064 438.688 672.391 440.859 681.311 434.579C690.17 428.342 692.323 416.118 686.129 407.229L388.554 -19.8231Z" fill="url(#paint3_linear)"/>
<path fill-rule="evenodd" clip-rule="evenodd" d="M341.14 -175.594C336.36 -182.457 326.91 -184.123 320.07 -179.309C313.278 -174.528 311.625 -165.157 316.373 -158.341L524.557 140.519C529.338 147.382 538.788 149.048 545.628 144.234C552.42 139.453 554.073 130.082 549.325 123.266L341.14 -175.594Z" fill="url(#paint4_linear)"/>
<path opacity="0.344889" fill-rule="evenodd" clip-rule="evenodd" d="M1145.59 -237.762C1141.64 -243.432 1133.83 -244.808 1128.18 -240.831C1122.57 -236.882 1121.21 -229.14 1125.13 -223.51L1411.46 187.534C1415.41 193.203 1423.22 194.58 1428.87 190.603C1434.48 186.653 1435.84 178.912 1431.92 173.282L1145.59 -237.762Z" fill="url(#paint5_linear)"/>
<path opacity="0.312783" fill-rule="evenodd" clip-rule="evenodd" d="M753.21 695.475C752.423 694.387 750.901 694.146 749.816 694.938L748.593 695.831C747.516 696.618 747.277 698.127 748.058 699.208L930.807 952.044C931.593 953.133 933.115 953.374 934.2 952.582L935.423 951.688C936.5 950.902 936.739 949.393 935.958 948.312L753.21 695.475Z" fill="url(#paint6_linear)"/>
<path fill-rule="evenodd" clip-rule="evenodd" d="M683.826 655.965C683.04 654.877 681.518 654.636 680.433 655.428L679.21 656.321C678.133 657.108 677.894 658.617 678.675 659.698L752.843 762.311C753.63 763.4 755.152 763.641 756.236 762.848L757.46 761.955C758.537 761.169 758.776 759.659 757.994 758.578L683.826 655.965Z" fill="url(#paint7_linear)"/>
<path fill-rule="evenodd" clip-rule="evenodd" d="M1348.83 574.965C1348.04 573.877 1346.52 573.636 1345.43 574.428L1344.21 575.321C1343.13 576.108 1342.89 577.617 1343.68 578.698L1417.84 681.311C1418.63 682.4 1420.15 682.641 1421.24 681.848L1422.46 680.955C1423.54 680.169 1423.78 678.659 1422.99 677.578L1348.83 574.965Z" fill="url(#paint8_linear)"/>
<path opacity="0.203706" fill-rule="evenodd" clip-rule="evenodd" d="M465.467 537.632C464.68 536.543 463.158 536.302 462.074 537.095L460.85 537.988C459.773 538.774 459.534 540.284 460.316 541.365L534.484 643.978C535.27 645.066 536.792 645.307 537.877 644.515L539.1 643.622C540.177 642.835 540.416 641.326 539.635 640.245L465.467 537.632Z" fill="url(#paint9_linear)"/>
<path opacity="0.169044" fill-rule="evenodd" clip-rule="evenodd" d="M42.4742 131.778C41.3622 130.239 39.2112 129.899 37.6784 131.018L35.9498 132.28C34.4276 133.392 34.0898 135.525 35.194 137.053L88.9367 211.407C90.0487 212.945 92.1997 213.286 93.7325 212.167L95.4611 210.904C96.9833 209.793 97.3211 207.66 96.2169 206.132L42.4742 131.778Z" fill="url(#paint10_linear)"/>
<path opacity="0.312783" fill-rule="evenodd" clip-rule="evenodd" d="M819.466 555.244C818.167 553.447 815.655 553.05 813.865 554.357L811.846 555.831C810.068 557.13 809.674 559.62 810.963 561.405L991.865 811.685C993.163 813.482 995.675 813.88 997.466 812.573L999.484 811.098C1001.26 809.8 1001.66 807.309 1000.37 805.525L819.466 555.244Z" fill="url(#paint11_linear)"/>
<path opacity="0.312783" fill-rule="evenodd" clip-rule="evenodd" d="M1371.47 631.244C1370.17 629.447 1367.65 629.05 1365.86 630.357L1363.85 631.831C1362.07 633.13 1361.67 635.62 1362.96 637.405L1543.86 887.685C1545.16 889.482 1547.67 889.88 1549.47 888.573L1551.48 887.098C1553.26 885.8 1553.66 883.309 1552.37 881.525L1371.47 631.244Z" fill="url(#paint12_linear)"/>
<path opacity="0.203706" fill-rule="evenodd" clip-rule="evenodd" d="M435.34 525.657C434.544 524.556 433.004 524.312 431.906 525.113C430.817 525.909 430.575 527.436 431.365 528.53L515.082 644.355C515.878 645.456 517.418 645.7 518.516 644.899C519.605 644.103 519.847 642.576 519.057 641.482L435.34 525.657Z" fill="url(#paint13_linear)"/>
<path fill-rule="evenodd" clip-rule="evenodd" d="M-55.8049 474.965C-56.5917 473.877 -58.1137 473.636 -59.1984 474.428L-60.4215 475.321C-61.4986 476.108 -61.7376 477.617 -60.9563 478.698L121.792 731.534C122.579 732.623 124.101 732.864 125.185 732.072L126.408 731.179C127.486 730.392 127.725 728.883 126.943 727.802L-55.8049 474.965Z" fill="url(#paint14_linear)"/>
<path fill-rule="evenodd" clip-rule="evenodd" d="M945.195 193.965C944.408 192.877 942.886 192.636 941.802 193.428L940.579 194.321C939.501 195.108 939.262 196.617 940.044 197.698L1122.79 450.534C1123.58 451.623 1125.1 451.864 1126.19 451.072L1127.41 450.179C1128.49 449.392 1128.72 447.883 1127.94 446.802L945.195 193.965Z" fill="url(#paint15_linear)"/>
<path opacity="0.143965" fill-rule="evenodd" clip-rule="evenodd" d="M-93.1165 456.866C-95.0644 454.171 -98.8325 453.574 -101.518 455.535L-104.546 457.747C-107.213 459.694 -107.804 463.431 -105.87 466.107L72.6879 713.146C74.6358 715.841 78.404 716.438 81.0893 714.477L84.1174 712.265C86.7841 710.318 87.3759 706.581 85.4415 703.905L-93.1165 456.866Z" fill="url(#paint16_linear)"/>
<path opacity="0.143965" fill-rule="evenodd" clip-rule="evenodd" d="M900.884 171.981C898.936 169.286 895.167 168.689 892.482 170.651L889.454 172.862C886.787 174.809 886.196 178.546 888.13 181.222L1066.69 428.261C1068.64 430.956 1072.4 431.553 1075.09 429.592L1078.12 427.38C1080.78 425.433 1081.38 421.696 1079.44 419.02L900.884 171.981Z" fill="url(#paint17_linear)"/>
<defs>
<linearGradient id="paint0_linear" x1="320.442" y1="328.795" x2="904.073" y2="874.681" gradientUnits="userSpaceOnUse">
<stop stop-color="#341D62"/>
<stop offset="0.634207" stop-color="#663084"/>
<stop offset="1" stop-color="#673085"/>
</linearGradient>
<linearGradient id="paint1_linear" x1="18.8175" y1="-460.863" x2="54.1392" y2="-484.938" gradientUnits="userSpaceOnUse">
<stop stop-color="#8468F5"/>
<stop offset="1" stop-color="#EC74E7"/>
</linearGradient>
<linearGradient id="paint2_linear" x1="1134.12" y1="-91.7264" x2="1187.68" y2="-124.676" gradientUnits="userSpaceOnUse">
<stop stop-color="#8468F5"/>
<stop offset="1" stop-color="#EC74E7"/>
</linearGradient>
<linearGradient id="paint3_linear" x1="557.805" y1="186.154" x2="494.363" y2="237.72" gradientUnits="userSpaceOnUse">
<stop stop-color="#7623AE"/>
<stop offset="1" stop-color="#C86DD7"/>
</linearGradient>
<linearGradient id="paint4_linear" x1="463.011" y1="-26.5261" x2="416.103" y2="12.0858" gradientUnits="userSpaceOnUse">
<stop stop-color="#341D62"/>
<stop offset="0.634207" stop-color="#663084"/>
<stop offset="1" stop-color="#673085"/>
</linearGradient>
<linearGradient id="paint5_linear" x1="1303.07" y1="-35.8815" x2="1261.39" y2="-3.52752" gradientUnits="userSpaceOnUse">
<stop stop-color="#7623AE"/>
<stop offset="1" stop-color="#C86DD7"/>
</linearGradient>
<linearGradient id="paint6_linear" x1="444.959" y1="264.318" x2="467.001" y2="248.571" gradientUnits="userSpaceOnUse">
<stop stop-color="#8468F5"/>
<stop offset="1" stop-color="#EC74E7"/>
</linearGradient>
<linearGradient id="paint7_linear" x1="556.79" y1="474.669" x2="577.568" y2="460.138" gradientUnits="userSpaceOnUse">
<stop stop-color="#8468F5"/>
<stop offset="1" stop-color="#EC74E7"/>
</linearGradient>
<linearGradient id="paint8_linear" x1="1221.79" y1="393.669" x2="1242.57" y2="379.138" gradientUnits="userSpaceOnUse">
<stop stop-color="#8468F5"/>
<stop offset="1" stop-color="#EC74E7"/>
</linearGradient>
<linearGradient id="paint9_linear" x1="338.431" y1="356.336" x2="359.208" y2="341.805" gradientUnits="userSpaceOnUse">
<stop stop-color="#8468F5"/>
<stop offset="1" stop-color="#EC74E7"/>
</linearGradient>
<linearGradient id="paint10_linear" x1="-51.8179" y1="-6.90673" x2="-22.8323" y2="-26.5314" gradientUnits="userSpaceOnUse">
<stop stop-color="#8468F5"/>
<stop offset="1" stop-color="#EC74E7"/>
</linearGradient>
<linearGradient id="paint11_linear" x1="512.181" y1="121.427" x2="547.108" y2="96.7173" gradientUnits="userSpaceOnUse">
<stop stop-color="#8468F5"/>
<stop offset="1" stop-color="#EC74E7"/>
</linearGradient>
<linearGradient id="paint12_linear" x1="1064.18" y1="197.427" x2="1099.11" y2="172.717" gradientUnits="userSpaceOnUse">
<stop stop-color="#8468F5"/>
<stop offset="1" stop-color="#EC74E7"/>
</linearGradient>
<linearGradient id="paint13_linear" x1="291.627" y1="322.771" x2="307.942" y2="311.23" gradientUnits="userSpaceOnUse">
<stop stop-color="#8468F5"/>
<stop offset="1" stop-color="#EC74E7"/>
</linearGradient>
<linearGradient id="paint14_linear" x1="-364.056" y1="43.8083" x2="-342.013" y2="28.0609" gradientUnits="userSpaceOnUse">
<stop stop-color="#8468F5"/>
<stop offset="1" stop-color="#EC74E7"/>
</linearGradient>
<linearGradient id="paint15_linear" x1="636.944" y1="-237.192" x2="658.987" y2="-252.939" gradientUnits="userSpaceOnUse">
<stop stop-color="#8468F5"/>
<stop offset="1" stop-color="#EC74E7"/>
</linearGradient>
<linearGradient id="paint16_linear" x1="-399.176" y1="19.6736" x2="-347.786" y2="-16.2313" gradientUnits="userSpaceOnUse">
<stop stop-color="#8468F5"/>
<stop offset="1" stop-color="#EC74E7"/>
</linearGradient>
<linearGradient id="paint17_linear" x1="594.824" y1="-265.211" x2="646.214" y2="-301.116" gradientUnits="userSpaceOnUse">
<stop stop-color="#8468F5"/>
<stop offset="1" stop-color="#EC74E7"/>
</linearGradient>
</defs>
</svg>
