<svg width="2004" height="1109" viewBox="0 0 2004 1109" fill="none" xmlns="http://www.w3.org/2000/svg">
<path fill-rule="evenodd" clip-rule="evenodd" d="M556.5 -141.5L2765 38L2018.78 463.563L1346.84 835.975C1301.99 860.83 1245.61 847.74 1216.31 805.669L556.5 -141.5Z" fill="url(#paint0_linear)"/>
<path fill-rule="evenodd" clip-rule="evenodd" d="M612.514 45.2846C611.247 43.4656 608.743 43.024 606.93 44.2999L604.887 45.7381C603.086 47.0053 602.648 49.489 603.907 51.2955L780.435 304.712C781.702 306.531 784.207 306.973 786.02 305.697L788.063 304.259C789.863 302.992 790.301 300.508 789.043 298.701L612.514 45.2846Z" fill="url(#paint1_linear)"/>
<path fill-rule="evenodd" clip-rule="evenodd" d="M1401.43 286.695C1400 284.649 1397.18 284.152 1395.15 285.587L1392.85 287.205C1390.82 288.631 1390.33 291.425 1391.74 293.457L1439.2 361.586C1440.63 363.632 1443.44 364.129 1445.48 362.693L1447.78 361.075C1449.81 359.65 1450.3 356.856 1448.89 354.823L1401.43 286.695Z" fill="url(#paint2_linear)"/>
<path fill-rule="evenodd" clip-rule="evenodd" d="M700.554 64.1769C694.317 55.2262 681.99 53.0547 673.07 59.3352V59.3352C664.211 65.5725 662.058 77.7961 668.252 86.6853L965.827 513.737C972.064 522.688 984.391 524.859 993.311 518.579V518.579C1002.17 512.341 1004.32 500.118 998.129 491.229L700.554 64.1769Z" fill="url(#paint3_linear)"/>
<path fill-rule="evenodd" clip-rule="evenodd" d="M683.14 -77.5942C678.36 -84.457 668.91 -86.1233 662.07 -81.3094V-81.3094C655.278 -76.5285 653.625 -67.1573 658.373 -60.3414L866.557 238.519C871.338 245.382 880.788 247.048 887.628 242.234V242.234C894.42 237.453 896.073 228.082 891.325 221.266L683.14 -77.5942Z" fill="url(#paint4_linear)"/>
<path opacity="0.344889" fill-rule="evenodd" clip-rule="evenodd" d="M1255.59 -83.7624C1251.64 -89.4317 1243.83 -90.8081 1238.18 -86.8314V-86.8314C1232.57 -82.8819 1231.21 -75.1405 1235.13 -69.51L1521.46 341.534C1525.41 347.203 1533.22 348.58 1538.87 344.603V344.603C1544.48 340.653 1545.84 332.912 1541.92 327.282L1255.59 -83.7624Z" fill="url(#paint5_linear)"/>
<path opacity="0.344889" fill-rule="evenodd" clip-rule="evenodd" d="M1802.59 293.238C1798.64 287.568 1790.83 286.192 1785.18 290.169V290.169C1779.57 294.118 1778.21 301.86 1782.13 307.49L2068.46 718.534C2072.41 724.203 2080.22 725.58 2085.87 721.603V721.603C2091.48 717.653 2092.84 709.912 2088.92 704.282L1802.59 293.238Z" fill="url(#paint6_linear)"/>
<path opacity="0.312783" fill-rule="evenodd" clip-rule="evenodd" d="M863.21 849.475C862.423 848.387 860.901 848.146 859.816 848.938L858.593 849.831C857.516 850.618 857.277 852.127 858.058 853.208L1040.81 1106.04C1041.59 1107.13 1043.12 1107.37 1044.2 1106.58L1045.42 1105.69C1046.5 1104.9 1046.74 1103.39 1045.96 1102.31L863.21 849.475Z" fill="url(#paint7_linear)"/>
<path fill-rule="evenodd" clip-rule="evenodd" d="M793.826 809.965C793.04 808.877 791.518 808.636 790.433 809.428L789.21 810.321C788.133 811.108 787.894 812.617 788.675 813.698L862.843 916.311C863.63 917.4 865.152 917.641 866.236 916.848L867.46 915.955C868.537 915.169 868.776 913.659 867.994 912.578L793.826 809.965Z" fill="url(#paint8_linear)"/>
<path fill-rule="evenodd" clip-rule="evenodd" d="M1458.83 728.965C1458.04 727.877 1456.52 727.636 1455.43 728.428L1454.21 729.321C1453.13 730.108 1452.89 731.617 1453.68 732.698L1527.84 835.311C1528.63 836.4 1530.15 836.641 1531.24 835.848L1532.46 834.955C1533.54 834.169 1533.78 832.659 1532.99 831.578L1458.83 728.965Z" fill="url(#paint9_linear)"/>
<path opacity="0.203706" fill-rule="evenodd" clip-rule="evenodd" d="M575.467 691.632C574.681 690.543 573.158 690.302 572.074 691.095L570.851 691.988C569.774 692.774 569.535 694.284 570.316 695.365L644.484 797.978C645.271 799.066 646.793 799.307 647.877 798.515L649.1 797.622C650.178 796.835 650.417 795.326 649.635 794.245L575.467 691.632Z" fill="url(#paint10_linear)"/>
<path opacity="0.169044" fill-rule="evenodd" clip-rule="evenodd" d="M152.474 285.778C151.362 284.239 149.211 283.899 147.678 285.018L145.95 286.28C144.427 287.392 144.09 289.525 145.194 291.053L198.936 365.407C200.048 366.945 202.199 367.286 203.732 366.167L205.461 364.904C206.983 363.793 207.321 361.66 206.217 360.132L152.474 285.778Z" fill="url(#paint11_linear)"/>
<path opacity="0.312783" fill-rule="evenodd" clip-rule="evenodd" d="M929.466 709.244C928.167 707.447 925.655 707.05 923.865 708.357L921.846 709.831C920.068 711.13 919.674 713.62 920.963 715.405L1101.86 965.685C1103.16 967.482 1105.68 967.88 1107.47 966.573L1109.48 965.098C1111.26 963.8 1111.66 961.309 1110.37 959.525L929.466 709.244Z" fill="url(#paint12_linear)"/>
<path opacity="0.312783" fill-rule="evenodd" clip-rule="evenodd" d="M1561.47 486.244C1560.17 484.447 1557.65 484.05 1555.86 485.357L1553.85 486.831C1552.07 488.13 1551.67 490.62 1552.96 492.405L1733.86 742.685C1735.16 744.482 1737.68 744.88 1739.47 743.573L1741.48 742.098C1743.26 740.8 1743.66 738.309 1742.37 736.525L1561.47 486.244Z" fill="url(#paint13_linear)"/>
<path opacity="0.312783" fill-rule="evenodd" clip-rule="evenodd" d="M1481.47 785.244C1480.17 783.447 1477.65 783.05 1475.86 784.357L1473.85 785.831C1472.07 787.13 1471.67 789.62 1472.96 791.405L1653.86 1041.69C1655.16 1043.48 1657.68 1043.88 1659.47 1042.57L1661.48 1041.1C1663.26 1039.8 1663.66 1037.31 1662.37 1035.52L1481.47 785.244Z" fill="url(#paint14_linear)"/>
<path opacity="0.203706" fill-rule="evenodd" clip-rule="evenodd" d="M545.34 679.657C544.544 678.556 543.004 678.312 541.906 679.113V679.113C540.817 679.909 540.575 681.436 541.365 682.53L625.082 798.355C625.878 799.456 627.418 799.7 628.516 798.899V798.899C629.605 798.103 629.847 796.576 629.057 795.482L545.34 679.657Z" fill="url(#paint15_linear)"/>
<path fill-rule="evenodd" clip-rule="evenodd" d="M54.1951 628.965C53.4083 627.877 51.8863 627.636 50.8016 628.428L49.5785 629.321C48.5014 630.108 48.2624 631.617 49.0437 632.698L231.792 885.534C232.579 886.623 234.101 886.864 235.185 886.072L236.408 885.179C237.486 884.392 237.725 882.883 236.943 881.802L54.1951 628.965Z" fill="url(#paint16_linear)"/>
<path fill-rule="evenodd" clip-rule="evenodd" d="M1055.2 352.965C1054.41 351.877 1052.89 351.636 1051.8 352.428L1050.58 353.321C1049.5 354.108 1049.26 355.617 1050.04 356.698L1232.79 609.534C1233.58 610.623 1235.1 610.864 1236.19 610.072L1237.41 609.179C1238.49 608.392 1238.72 606.883 1237.94 605.802L1055.2 352.965Z" fill="url(#paint17_linear)"/>
<path fill-rule="evenodd" clip-rule="evenodd" d="M1664.2 607.965C1663.41 606.877 1661.89 606.636 1660.8 607.428L1659.58 608.321C1658.5 609.108 1658.26 610.617 1659.04 611.698L1841.79 864.534C1842.58 865.623 1844.1 865.864 1845.19 865.072L1846.41 864.179C1847.49 863.392 1847.72 861.883 1846.94 860.802L1664.2 607.965Z" fill="url(#paint18_linear)"/>
<path opacity="0.143965" fill-rule="evenodd" clip-rule="evenodd" d="M16.8833 610.866C14.9354 608.171 11.1672 607.574 8.48185 609.535L5.4538 611.747C2.78706 613.694 2.1953 617.431 4.1297 620.107L182.688 867.146C184.636 869.841 188.404 870.438 191.089 868.477L194.117 866.265C196.784 864.318 197.376 860.581 195.441 857.905L16.8833 610.866Z" fill="url(#paint19_linear)"/>
<path opacity="0.143965" fill-rule="evenodd" clip-rule="evenodd" d="M1010.88 325.981C1008.94 323.286 1005.17 322.689 1002.48 324.651L999.454 326.862C996.787 328.809 996.195 332.546 998.13 335.222L1176.69 582.261C1178.64 584.956 1182.4 585.553 1185.09 583.592L1188.12 581.38C1190.78 579.433 1191.38 575.696 1189.44 573.02L1010.88 325.981Z" fill="url(#paint20_linear)"/>
<defs>
<linearGradient id="paint0_linear" x1="729.442" y1="552.795" x2="1313.07" y2="1098.68" gradientUnits="userSpaceOnUse">
<stop stop-color="#341D62"/>
<stop offset="0.634207" stop-color="#663084"/>
<stop offset="1" stop-color="#673085"/>
</linearGradient>
<linearGradient id="paint1_linear" x1="312.817" y1="-393.863" x2="348.139" y2="-417.938" gradientUnits="userSpaceOnUse">
<stop stop-color="#8468F5"/>
<stop offset="1" stop-color="#EC74E7"/>
</linearGradient>
<linearGradient id="paint2_linear" x1="1244.12" y1="62.2736" x2="1297.68" y2="29.3238" gradientUnits="userSpaceOnUse">
<stop stop-color="#8468F5"/>
<stop offset="1" stop-color="#EC74E7"/>
</linearGradient>
<linearGradient id="paint3_linear" x1="869.805" y1="270.154" x2="806.363" y2="321.72" gradientUnits="userSpaceOnUse">
<stop stop-color="#7623AE"/>
<stop offset="1" stop-color="#C86DD7"/>
</linearGradient>
<linearGradient id="paint4_linear" x1="805.011" y1="71.4739" x2="758.103" y2="110.086" gradientUnits="userSpaceOnUse">
<stop stop-color="#341D62"/>
<stop offset="0.634207" stop-color="#663084"/>
<stop offset="1" stop-color="#673085"/>
</linearGradient>
<linearGradient id="paint5_linear" x1="1413.07" y1="118.118" x2="1371.39" y2="150.472" gradientUnits="userSpaceOnUse">
<stop stop-color="#7623AE"/>
<stop offset="1" stop-color="#C86DD7"/>
</linearGradient>
<linearGradient id="paint6_linear" x1="1960.07" y1="495.118" x2="1918.39" y2="527.472" gradientUnits="userSpaceOnUse">
<stop stop-color="#7623AE"/>
<stop offset="1" stop-color="#C86DD7"/>
</linearGradient>
<linearGradient id="paint7_linear" x1="554.959" y1="418.318" x2="577.001" y2="402.571" gradientUnits="userSpaceOnUse">
<stop stop-color="#8468F5"/>
<stop offset="1" stop-color="#EC74E7"/>
</linearGradient>
<linearGradient id="paint8_linear" x1="666.79" y1="628.669" x2="687.568" y2="614.138" gradientUnits="userSpaceOnUse">
<stop stop-color="#8468F5"/>
<stop offset="1" stop-color="#EC74E7"/>
</linearGradient>
<linearGradient id="paint9_linear" x1="1331.79" y1="547.669" x2="1352.57" y2="533.138" gradientUnits="userSpaceOnUse">
<stop stop-color="#8468F5"/>
<stop offset="1" stop-color="#EC74E7"/>
</linearGradient>
<linearGradient id="paint10_linear" x1="448.431" y1="510.336" x2="469.209" y2="495.805" gradientUnits="userSpaceOnUse">
<stop stop-color="#8468F5"/>
<stop offset="1" stop-color="#EC74E7"/>
</linearGradient>
<linearGradient id="paint11_linear" x1="58.1819" y1="147.093" x2="87.1674" y2="127.469" gradientUnits="userSpaceOnUse">
<stop stop-color="#8468F5"/>
<stop offset="1" stop-color="#EC74E7"/>
</linearGradient>
<linearGradient id="paint12_linear" x1="622.181" y1="275.427" x2="657.108" y2="250.717" gradientUnits="userSpaceOnUse">
<stop stop-color="#8468F5"/>
<stop offset="1" stop-color="#EC74E7"/>
</linearGradient>
<linearGradient id="paint13_linear" x1="1254.18" y1="52.4266" x2="1289.11" y2="27.7173" gradientUnits="userSpaceOnUse">
<stop stop-color="#8468F5"/>
<stop offset="1" stop-color="#EC74E7"/>
</linearGradient>
<linearGradient id="paint14_linear" x1="1174.18" y1="351.427" x2="1209.11" y2="326.717" gradientUnits="userSpaceOnUse">
<stop stop-color="#8468F5"/>
<stop offset="1" stop-color="#EC74E7"/>
</linearGradient>
<linearGradient id="paint15_linear" x1="401.627" y1="476.771" x2="417.942" y2="465.23" gradientUnits="userSpaceOnUse">
<stop stop-color="#8468F5"/>
<stop offset="1" stop-color="#EC74E7"/>
</linearGradient>
<linearGradient id="paint16_linear" x1="-254.056" y1="197.808" x2="-232.013" y2="182.061" gradientUnits="userSpaceOnUse">
<stop stop-color="#8468F5"/>
<stop offset="1" stop-color="#EC74E7"/>
</linearGradient>
<linearGradient id="paint17_linear" x1="746.944" y1="-78.1917" x2="768.987" y2="-93.9391" gradientUnits="userSpaceOnUse">
<stop stop-color="#8468F5"/>
<stop offset="1" stop-color="#EC74E7"/>
</linearGradient>
<linearGradient id="paint18_linear" x1="1355.94" y1="176.808" x2="1377.99" y2="161.061" gradientUnits="userSpaceOnUse">
<stop stop-color="#8468F5"/>
<stop offset="1" stop-color="#EC74E7"/>
</linearGradient>
<linearGradient id="paint19_linear" x1="-289.176" y1="173.674" x2="-237.786" y2="137.769" gradientUnits="userSpaceOnUse">
<stop stop-color="#8468F5"/>
<stop offset="1" stop-color="#EC74E7"/>
</linearGradient>
<linearGradient id="paint20_linear" x1="704.824" y1="-111.211" x2="756.214" y2="-147.116" gradientUnits="userSpaceOnUse">
<stop stop-color="#8468F5"/>
<stop offset="1" stop-color="#EC74E7"/>
</linearGradient>
</defs>
</svg>
