<svg width="23" height="22" viewBox="0 0 23 22" fill="none" xmlns="http://www.w3.org/2000/svg">
<path fill-rule="evenodd" clip-rule="evenodd" d="M18.4208 9.58974C18.4208 6.12615 16.5291 3.22667 13.2302 2.45949V1.69231C13.2302 0.755897 12.4574 0 11.5 0C10.5426 0 9.76981 0.755897 9.76981 1.69231V2.45949C6.45938 3.22667 4.57924 6.11487 4.57924 9.58974V15.2308L2.27232 17.4872V18.6154H20.7277V17.4872L18.4208 15.2308V9.58974ZM4.75226 0.169231L6.40171 1.78256C4.04865 3.41846 2.47994 6.0359 2.30692 9.02564H0C0.161484 5.41538 1.98395 2.23385 4.75226 0.169231ZM23 9.02564H20.6931C20.5201 6.0359 18.9398 3.41846 16.6098 1.78256L18.2477 0.169231C21.0045 2.23385 22.827 5.41538 23 9.02564ZM11.9614 21.9549C11.8114 21.9887 11.6615 22 11.5 22C10.2197 22 9.19308 20.9846 9.18154 19.7436H13.7954C13.7954 20.0595 13.7377 20.3528 13.6224 20.6236C13.3225 21.3005 12.7111 21.7969 11.9614 21.9549Z" fill="url(#paint0_linear)"/>
<defs>
<linearGradient id="paint0_linear" x1="-11.615" y1="11.22" x2="10.8127" y2="34.4372" gradientUnits="userSpaceOnUse">
<stop stop-color="#7623AE"/>
<stop offset="1" stop-color="#C86DD7"/>
</linearGradient>
</defs>
</svg>
