<svg width="23" height="23" viewBox="0 0 23 23" fill="none" xmlns="http://www.w3.org/2000/svg">
<path fill-rule="evenodd" clip-rule="evenodd" d="M15.1866 14.4654H16.1606L22.3125 21.0406L20.4756 23L14.3113 16.438V15.3991L13.9785 15.0309C12.573 16.3196 10.7484 17.0955 8.76351 17.0955C4.33759 17.0955 0.75 13.2687 0.75 8.54774C0.75 3.82676 4.33759 0 8.76351 0C13.1894 0 16.777 3.82676 16.777 8.54774C16.777 10.665 16.0496 12.6112 14.8414 14.1103L15.1866 14.4654ZM3.21569 8.54774C3.21569 11.8222 5.69372 14.4654 8.76351 14.4654C11.8333 14.4654 14.3113 11.8222 14.3113 8.54774C14.3113 5.2733 11.8333 2.63007 8.76351 2.63007C5.69372 2.63007 3.21569 5.2733 3.21569 8.54774Z" fill="url(#paint0_linear)"/>
<defs>
<linearGradient id="paint0_linear" x1="-10.1391" y1="11.73" x2="13.2573" y2="33.4491" gradientUnits="userSpaceOnUse">
<stop stop-color="#7623AE"/>
<stop offset="1" stop-color="#C86DD7"/>
</linearGradient>
</defs>
</svg>
