<svg width="30" height="29" viewBox="0 0 30 29" fill="none" xmlns="http://www.w3.org/2000/svg">
<path fill-rule="evenodd" clip-rule="evenodd" d="M27.9879 7.40275C26.6465 5.12542 24.8271 3.32245 22.529 1.99344C20.2307 0.664368 17.7215 0 14.9999 0C12.2785 0 9.76858 0.664572 7.47069 1.99344C5.17246 3.32238 3.35308 5.12542 2.01174 7.40275C0.670602 9.68001 0 12.1668 0 14.863C0 18.1018 0.953606 21.0143 2.8613 23.601C4.76878 26.188 7.23297 27.9781 10.2537 28.9715C10.6053 29.0362 10.8656 28.9907 11.0348 28.8362C11.2041 28.6815 11.2887 28.4878 11.2887 28.2558C11.2887 28.2171 11.2853 27.8689 11.2788 27.2108C11.2721 26.5526 11.269 25.9785 11.269 25.4886L10.8197 25.5656C10.5333 25.6176 10.172 25.6396 9.73574 25.6334C9.29971 25.6274 8.84705 25.5821 8.37839 25.4979C7.90952 25.4144 7.47342 25.2209 7.06975 24.9177C6.66628 24.6145 6.37986 24.2176 6.21055 23.7277L6.01524 23.2823C5.88506 22.9858 5.68011 22.6564 5.40012 22.2954C5.12012 21.934 4.83698 21.6891 4.55056 21.5601L4.41381 21.4631C4.32269 21.3986 4.23814 21.3209 4.15995 21.2306C4.08183 21.1404 4.02334 21.0501 3.98428 20.9597C3.94515 20.8692 3.97758 20.795 4.0819 20.7367C4.18622 20.6785 4.37475 20.6503 4.64831 20.6503L5.03879 20.7081C5.29922 20.7598 5.62135 20.9143 6.0056 21.1725C6.38964 21.4305 6.70534 21.7659 6.95277 22.1786C7.2524 22.7077 7.61339 23.1109 8.03676 23.3883C8.4598 23.6658 8.88632 23.8043 9.31592 23.8043C9.74552 23.8043 10.1166 23.772 10.4292 23.7078C10.7415 23.6433 11.0345 23.5463 11.308 23.4173C11.4252 22.5525 11.7443 21.8882 12.2649 21.4238C11.5228 21.3465 10.8556 21.2301 10.263 21.0753C9.67075 20.9204 9.05871 20.6689 8.4273 20.3202C7.79556 19.972 7.27148 19.5396 6.85495 19.0237C6.43834 18.5076 6.09644 17.83 5.82972 16.9916C5.56286 16.1528 5.4294 15.1852 5.4294 14.0886C5.4294 12.5271 5.94382 11.1984 6.97247 10.1016C6.49061 8.92772 6.5361 7.61173 7.10908 6.15379C7.48669 6.03754 8.04668 6.12478 8.78877 6.41497C9.531 6.7053 10.0744 6.95401 10.4196 7.16021C10.7648 7.36635 11.0414 7.54103 11.2497 7.6827C12.4609 7.34737 13.7108 7.17966 14.9997 7.17966C16.2887 7.17966 17.5388 7.34737 18.7501 7.6827L19.4922 7.21844C19.9997 6.90866 20.599 6.62477 21.2887 6.36671C21.9788 6.10878 22.5065 6.03775 22.8713 6.154C23.457 7.612 23.5092 8.92793 23.0272 10.1018C24.0558 11.1986 24.5704 12.5277 24.5704 14.0888C24.5704 15.1854 24.4365 16.1561 24.17 17.0013C23.9032 17.8466 23.5584 18.5235 23.1353 19.0334C22.7118 19.5432 22.1844 19.9723 21.553 20.3204C20.9215 20.6688 20.3092 20.9203 19.7169 21.0753C19.1244 21.2302 18.4572 21.3467 17.7151 21.4241C18.3919 22.0045 18.7304 22.9206 18.7304 24.1721V28.2553C18.7304 28.4872 18.8118 28.6809 18.9748 28.8357C19.1375 28.9901 19.3945 29.0356 19.7461 28.9709C22.7672 27.9776 25.2314 26.1875 27.1388 23.6005C29.0461 21.0137 30 18.1013 30 14.8625C29.9993 12.1666 29.3284 9.68001 27.9879 7.40275Z" fill="white"/>
</svg>
