<svg width="24" height="24" viewBox="0 0 24 24" fill="none" xmlns="http://www.w3.org/2000/svg">
<path fill-rule="evenodd" clip-rule="evenodd" d="M23.4545 0H0.545471C0.243971 0 0 0.243971 0 0.545471V21.8182C0 23.0215 0.978493 24 2.18183 24H21.8182C23.0215 24 24 23.0215 24 21.8182V0.545471C23.9999 0.243971 23.756 0 23.4545 0ZM9.2727 2.18183H14.7273C15.6296 2.18183 16.3636 2.91584 16.3636 3.81819C16.3636 4.72054 15.6296 5.45455 14.7273 5.45455H9.2727C8.37035 5.45455 7.63634 4.72054 7.63634 3.81819C7.63634 2.91584 8.37035 2.18183 9.2727 2.18183ZM20.6513 22.9091H21.7479C21.7891 22.5466 21.8182 22.1825 21.8182 21.8182C21.8182 20.3982 21.5087 19.0512 20.9639 17.8314C20.951 17.7923 20.9327 17.7579 20.9118 17.7233C19.3557 14.3511 15.9509 12 12 12C8.75351 12 5.87837 13.5908 4.08993 16.0266C4.05521 16.0621 4.02698 16.0996 4.00356 16.1421C2.86113 17.7468 2.18183 19.7028 2.18183 21.8182C2.18183 22.1825 2.21093 22.5466 2.25214 22.9091H3.34861C3.30361 22.5473 3.27272 22.1829 3.27272 21.8182C3.27272 20.2289 3.70672 18.742 4.45203 17.4571L7.60371 22.9091H8.93417C8.80945 22.559 8.72723 22.1969 8.72723 21.8182C8.72723 20.0135 10.1952 18.5454 11.9999 18.5454C13.8047 18.5454 15.2727 20.0135 15.2727 21.8182C15.2727 22.1967 15.1903 22.5588 15.0655 22.9091H16.1942C16.2926 22.5546 16.3636 22.1936 16.3636 21.8182C16.3636 20.5087 15.7719 19.3459 14.8556 18.5454H20.0847C20.4958 19.5572 20.7272 20.6605 20.7272 21.8182C20.7272 22.1829 20.6963 22.5472 20.6513 22.9091Z" fill="white"/>
</svg>
