<svg width="39" height="30" viewBox="0 0 39 30" fill="none" xmlns="http://www.w3.org/2000/svg">
<path fill-rule="evenodd" clip-rule="evenodd" d="M21.125 0H17.875V7.95334H21.125V0ZM32.0938 4.5334L34.385 6.77625C34.2062 6.82397 28.6 12.4231 28.6 12.4231L26.3088 10.1803L32.0938 4.5334ZM19.5 15.9067C26.8775 15.9067 33.5725 18.7381 38.5288 23.3351C38.8213 23.6214 39 24.0191 39 24.4486C39 24.894 38.8213 25.2916 38.5288 25.5779L34.4987 29.5228C34.2062 29.8091 33.8 29.9841 33.345 29.9841C32.9062 29.9841 32.5 29.825 32.2075 29.5387C30.9237 28.3775 29.4775 27.3754 27.885 26.596C27.3488 26.3415 26.975 25.7847 26.975 25.1644V20.2333C24.6187 19.4857 22.1 19.088 19.5 19.088C16.9 19.088 14.3812 19.4857 12.025 20.2492V25.1803C12.025 25.8165 11.6512 26.3574 11.115 26.6119C9.53875 27.3913 8.07625 28.3775 6.7925 29.5546C6.5 29.825 6.09375 30 5.655 30C5.2 30 4.79375 29.825 4.50125 29.5387L0.47125 25.5938C0.17875 25.3075 0 24.9099 0 24.4645C0 24.0191 0.17875 23.6214 0.47125 23.3351C5.4275 18.7381 12.1225 15.9067 19.5 15.9067ZM12.6912 10.1803L10.4 12.4231C10.4 12.4231 4.79375 6.82397 4.615 6.77625L6.9225 4.5175L12.6912 10.1803Z" fill="url(#paint0_linear)"/>
<defs>
<linearGradient id="paint0_linear" x1="-19.695" y1="15.3" x2="9.95614" y2="53.4686" gradientUnits="userSpaceOnUse">
<stop stop-color="#7623AE"/>
<stop offset="1" stop-color="#C86DD7"/>
</linearGradient>
</defs>
</svg>
